<svg width="40" height="40" viewBox="0 0 40 40" fill="none" xmlns="http://www.w3.org/2000/svg">
<rect width="40" height="40" fill="#333333"/>
<path d="M26.4927 24.3025V22.6684C27.5032 22.3244 28.2343 21.2494 28.2343 19.9809C28.2343 18.7124 27.5032 17.6373 26.4927 17.2933V15.6593C27.4387 15.3368 28.1483 14.3693 28.2128 13.1868H27.0732V13.6813C27.0732 14.0683 26.8367 14.4123 26.4927 14.5628V14.3693C26.4927 14.0253 26.1917 13.7458 25.8262 13.7458H25.7616C25.3961 13.7458 25.0951 14.0253 25.0951 14.3693V14.6058C24.7511 14.4338 24.5146 14.1113 24.5146 13.7243V13.2298H23.375C23.461 14.3908 24.1491 15.3798 25.0951 15.7023V17.3363C24.0846 17.6803 23.3535 18.7554 23.3535 20.0239C23.3535 21.2924 24.0846 22.3674 25.0951 22.7114V24.3455C24.1491 24.668 23.4395 25.6355 23.375 26.818H24.5146V26.3235C24.5146 25.9365 24.7511 25.5925 25.0951 25.442V25.6785C25.0951 26.0225 25.3961 26.302 25.7616 26.302H25.8262C26.1917 26.302 26.4927 26.0225 26.4927 25.6785V25.442C26.8367 25.614 27.0732 25.9365 27.0732 26.3235V26.818H28.2128C28.1483 25.5925 27.4387 24.625 26.4927 24.3025ZM24.5146 20.6904V19.2714C24.5146 18.8844 24.7511 18.5404 25.0951 18.3899V18.6264C25.0951 18.9704 25.3961 19.2499 25.7616 19.2499H25.8262C26.1917 19.2499 26.4927 18.9704 26.4927 18.6264V18.3899C26.8367 18.5619 27.0732 18.8844 27.0732 19.2714V20.6904C27.0732 21.0774 26.8367 21.4214 26.4927 21.5719V21.3354C26.4927 20.9914 26.1917 20.7119 25.8262 20.7119H25.7616C25.3961 20.7119 25.0951 20.9914 25.0951 21.3354V21.5719C24.7511 21.4214 24.5146 21.0774 24.5146 20.6904Z" fill="white"/>
<path d="M33.2583 20.8409V19.0994C34.2689 18.7554 34.9999 17.6803 34.9999 16.4118C34.9999 15.1433 34.2689 14.0683 33.2583 13.7243V13.1868H31.8822V13.7243C30.8717 14.0683 30.1406 15.1433 30.1406 16.4118C30.1406 17.6803 30.8717 18.7554 31.8822 19.0994V20.8409C30.8717 21.1849 30.1406 22.2599 30.1406 23.5284C30.1406 24.797 30.8717 25.872 31.8822 26.216V26.7535H33.2583V26.216C34.2689 25.872 34.9999 24.797 34.9999 23.5284C34.9999 22.2599 34.2689 21.1849 33.2583 20.8409ZM31.3017 17.1428V15.7238C31.3017 15.3368 31.5382 14.9928 31.8822 14.8423V15.0788C31.8822 15.4228 32.1832 15.7023 32.5488 15.7023H32.6133C32.9788 15.7023 33.2798 15.4228 33.2798 15.0788V14.8423C33.6238 15.0143 33.8603 15.3368 33.8603 15.7238V17.1428C33.8603 17.5298 33.6238 17.8739 33.2798 18.0244V17.8093C33.2798 17.4653 32.9788 17.1858 32.6133 17.1858H32.5488C32.1832 17.1858 31.8822 17.4653 31.8822 17.8093V18.0459C31.5382 17.8738 31.3017 17.5298 31.3017 17.1428ZM33.8388 24.238C33.8388 24.625 33.6023 24.969 33.2583 25.1195V24.7755C33.2583 24.4315 32.9573 24.152 32.5918 24.152H32.5273C32.1617 24.152 31.8607 24.4315 31.8607 24.7755V25.1195C31.5167 24.9475 31.2802 24.625 31.2802 24.238V22.8189C31.2802 22.4319 31.5167 22.0879 31.8607 21.9374V22.0664C31.8607 22.4104 32.1617 22.6899 32.5273 22.6899H32.5918C32.9573 22.6899 33.2583 22.4104 33.2583 22.0664V21.9374C33.6023 22.1094 33.8388 22.4319 33.8388 22.8189V24.238Z" fill="white"/>
<path d="M19.1908 18.6004C19.1693 18.5359 19.1693 18.4714 19.1263 18.4069C19.1263 18.3854 21.2979 15.5904 19.2983 13.8703C17.2987 12.1503 14.9766 14.3863 14.9551 14.4078C14.5895 14.3003 14.2025 14.2358 13.837 14.1928C13.0844 14.0853 12.0094 14.1928 12.0094 14.1928C11.6439 14.2143 11.2783 14.2788 10.9128 14.3863C10.8913 14.3648 8.5692 12.1288 6.56959 13.8488C4.56998 15.5689 6.7201 18.3639 6.7416 18.3854C6.7201 18.4499 6.69859 18.5144 6.67709 18.5789C6.46208 19.7829 5 20.1484 5 22.234C5 24.3625 6.52659 26.0395 9.66576 26.0395H10.9558C10.9558 26.0395 11.4504 26.7061 12.4824 26.7491C12.4824 26.7491 12.7189 26.7706 13.2565 26.7491C14.353 26.7491 14.869 26.061 14.869 26.0395H16.1591C19.2983 26.0395 20.8249 24.3625 20.8249 22.234C20.8894 20.1699 19.4058 19.7829 19.1908 18.6004Z" fill="white"/>
</svg>
